<svg
  viewBox="0 0 572 1473"
  fill="none"
  xmlns="http://www.w3.org/2000/svg"
  style="filter: drop-shadow(0 20px 40px rgba(0,0,0,0.3));"
>
  <path
    d="M301.234 0L301.385 0.180664L321 23.8193V124.712L384.794 161.593L384.832 161.626L571.206 327.459L550.581 350.661L348.35 212.685L354 232.932V350.164L353.902 350.297L338.547 371.1L353.925 425.168L444.251 477.567L444.334 477.615L444.393 477.69L485.393 529.69L485.438 529.747L485.465 529.814L514.965 603.814L514.035 604.186L484.561 530.251L443.666 478.385L353.074 425.831L353.02 425.637L337.452 370.9L352.51 350.5H177.455L187.502 232.957L187.505 232.921L187.514 232.885L212.801 125.786L0 203.214V154.161L0.314453 154.035L213.046 69.1416L219.505 23.9297L219.532 23.7402L247.818 0H301.234ZM220.468 24.2588L213.954 69.8574L1 154.839V201.786L214.199 124.214L188.494 233.078L178.545 349.5H353V233.067L346.65 210.314L550.418 349.338L569.794 327.541L384.203 162.405L320 125.288V24.1797L300.766 1H248.182L220.468 24.2588Z"
    fill="currentColor"
    stroke="currentColor"
    stroke-width="22"
    stroke-linejoin="round"
  />
  <path
    d="M203.1 376.397L202.953 376.711L179.453 427.211L179.397 427.331L179.29 427.407L81.8984 496.829L14.9922 643.624L4.50195 784.989L85.4688 1432.22L140.66 1472H408.819L456.531 1432.24L514.503 1025.94L536.498 784.995L526.505 643.591L514.521 604.146L515.479 603.854L527.479 643.354L527.495 643.408L527.499 643.465L537.499 784.965L537.502 785.005L537.498 785.046L515.498 1026.05L515.497 1026.06L515.495 1026.07L457.468 1432.76L409.181 1473H140.339L140.208 1472.91L84.708 1432.91L84.5312 1432.78L84.5039 1432.56L3.50391 785.062L3.49805 785.013L3.50098 784.963L14.001 643.463L14.0078 643.374L14.0449 643.293L81.1006 496.171L178.603 426.669L201.9 376.603L178.643 352.85L179.357 352.15L203.1 376.397Z"
    fill="currentColor"
    stroke="currentColor"
    stroke-width="22"
    stroke-linejoin="round"
  />
</svg>
